# xmcd
#
# Track frame offsets:
#	150
#	13575
#	30583
#	46525
#	64672
#	80571
#	96282
#	113567
#	128064
#	144996
#	158772
#	175816
#	191858
#	208043
#	224561
#	241413
#	258621
#
# Disc length: 3625 seconds
#
# Revision: 0
# Processed by: cddbd v1.4PL0 Copyright (c) Steve Scherf et al.
# Submitted via: EasyCDDAExtractor 4.6.0.1
#
DISCID=ea0e2711
DTITLE=Kachakas - Lo Nuevo
DYEAR=2002
DGENRE=
TTITLE0=Anoche me enamore - Lalo y los Descalzos
TTITLE1=Mitad de mi - Jose Guadalupe Esparza
TTITLE2=Lloro - Guardianes del Amor
TTITLE3=Me deje enamorar - Grupo Mojado
TTITLE4=Mami - Andikiru
TTITLE5=No era por mi - Fugitiva
TTITLE6=Veneno de Amor - Kumbiambe
TTITLE7=Me mintio - Jose Guadalupe Esparza
TTITLE8=No puedo Vivir sin ti - Grupo Mojado
TTITLE9=Sueño contigo - Andikiru
TTITLE10=A punto de caramelo - Socios del Ritmo
TTITLE11=Compadre Casimiro - Leo y los manchados
TTITLE12=No he podido ser feliz - Kumbiambe
TTITLE13=Me matas - Perla Morena
TTITLE14=Te voy a enamorar - Angeles de Charly
TTITLE15=Vas a sufrir - Bryndis
TTITLE16=Anoche me enamore - Lalo y los descalzos
EXTD=
EXTT0=
EXTT1=
EXTT2=
EXTT3=
EXTT4=
EXTT5=
EXTT6=
EXTT7=
EXTT8=
EXTT9=
EXTT10=
EXTT11=
EXTT12=
EXTT13=
EXTT14=
EXTT15=
EXTT16=
PLAYORDER=
